inDegrees=no
num_controls=7
num_derivatives=13
num_iterations=110
num_multipliers=7
num_parameters=0
num_slacks=7
num_states=26
objective=0.469917
objective_accelerations=0.062837
objective_balance=0.002147
objective_effort=0.020058
objective_height=0.375316
objective_ligament=0.009559
solver_duration=1524.209442
status=Solve_Succeeded
success=true
DataType=double
version=3
OpenSimVersion=4.5
endheader
time	/jointset/ground_pelvis/pelvis_tilt/value	/jointset/ground_pelvis/pelvis_tx/value	/jointset/ground_pelvis/pelvis_ty/value	/jointset/hip_l/hip_flexion_l/value	/jointset/hip_l/hip_adduction_l/value	/jointset/hip_l/hip_rotation_l/value	/jointset/back/lumbar_extension/value	/jointset/patellofemoral_l/patellar_flexion_l/value	/jointset/knee_l/knee_flexion_l/value	/jointset/knee_l/knee_adduction_l/value	/jointset/knee_l/knee_rotation_l/value	/jointset/ankle_l/ankle_angle_l/value	/jointset/subtalar_l/subtalar_angle_l/value	/jointset/ground_pelvis/pelvis_tilt/speed	/jointset/ground_pelvis/pelvis_tx/speed	/jointset/ground_pelvis/pelvis_ty/speed	/jointset/hip_l/hip_flexion_l/speed	/jointset/hip_l/hip_adduction_l/speed	/jointset/hip_l/hip_rotation_l/speed	/jointset/back/lumbar_extension/speed	/jointset/patellofemoral_l/patellar_flexion_l/speed	/jointset/knee_l/knee_flexion_l/speed	/jointset/knee_l/knee_adduction_l/speed	/jointset/knee_l/knee_rotation_l/speed	/jointset/ankle_l/ankle_angle_l/speed	/jointset/subtalar_l/subtalar_angle_l/speed	/forceset/tau_hip_flexion_l	/forceset/tau_hip_adduction_l	/forceset/tau_hip_rotation_l	/forceset/tau_knee_flexion_l	/forceset/tau_ankle_angle_l	/forceset/tau_subtalar_angle_l	/forceset/tau_lumbar_extension	lambda_cid13_p0	lambda_cid13_p1	lambda_cid13_p2	lambda_cid13_p3	lambda_cid13_p4	lambda_cid13_p5	lambda_cid14_p0	/jointset/ground_pelvis/pelvis_tilt/accel	/jointset/ground_pelvis/pelvis_tx/accel	/jointset/ground_pelvis/pelvis_ty/accel	/jointset/hip_l/hip_flexion_l/accel	/jointset/hip_l/hip_adduction_l/accel	/jointset/hip_l/hip_rotation_l/accel	/jointset/back/lumbar_extension/accel	/jointset/patellofemoral_l/patellar_flexion_l/accel	/jointset/knee_l/knee_flexion_l/accel	/jointset/knee_l/knee_adduction_l/accel	/jointset/knee_l/knee_rotation_l/accel	/jointset/ankle_l/ankle_angle_l/accel	/jointset/subtalar_l/subtalar_angle_l/accel	gamma_cid13_p0	gamma_cid13_p1	gamma_cid13_p2	gamma_cid13_p3	gamma_cid13_p4	gamma_cid13_p5	gamma_cid14_p0
1	-0.8162368291841346	-0.1616864778602136	0.6118237594457253	2.016424425411229	-0.3352652245305033	0.04815493176911397	-0.4363292510646918	1.070705824426528	1.070705824426954	-0.003136956277848563	-0.1745250390155645	0.0008095982475310994	0.08537532211839179	-0.1552413764219441	0.01175785024428336	0.03357480112231876	0.003290913043368728	-0.005779793549863014	-0.05660673471403885	-9.104225037763167e-06	-0.1633744648349713	-0.163374464835023	-0.008875043546581966	-1.305817200858848e-05	-0.02304125803755198	-0.01205557064408585	-0.374182128783714	0.004191329057189614	-0.005739453489591308	-0.1412012394288995	0.128949234387068	0.008871086814500981	0.2783169317883544	10.55675368888603	-2.218523690942614	-3.905284115561382	-8.75224392905989	-545.6780056025328	-60.73229037603316	-1.902397571456493	3.090634910563131	0.770590850831286	1.807982455404407	-7.627755813665512	-0.2403329482666642	-1.289123746198798	-0.02358711741311945	-3.916687361813034	-3.91668736181304	-0.4192629987240353	-0.02388470513771578	0.3550182945907523	-0.1233358696089015	-1.053171895539793e-08	-5.07623432266597e-08	3.534581115003857e-09	1.845008626449455e-09	-9.930662661535466e-09	3.017162330877038e-08	-1.312748472726817e-08
1.01	-0.8176358418297877	-0.1615304379467044	0.6122496540705759	2.016077390288839	-0.3353342728550117	0.04752506116133221	-0.4363292041624717	1.068876261200618	1.068876261200957	-0.003246097573322204	-0.1745251574389762	0.0005967492094505323	0.08524931895287581	-0.1245585479823648	0.01945595775965103	0.05159064931418807	-0.07267692853024971	-0.008023022288802771	-0.06936084524880635	2.101776337235129e-05	-0.2025310161728221	-0.2025310161728288	-0.01295493694926103	-9.486143346107625e-06	-0.01954485471487074	-0.01314303035940722	-0.3743051889607977	0.004379567604297273	-0.005740111450883965	-0.1404820793026207	0.1286098244821286	0.008976491107609877	0.278334680593024	10.47796849256832	-2.270405611310954	-3.874282799134823	-8.893768829159001	-545.4195770028447	-60.68562197223753	-1.938899580512726	3.057495611579053	0.7702938909777167	1.796361969266366	-7.578149188445695	-0.2152827453772209	-1.267587715622811	0.0166918211067017	-3.914061179323533	-3.91406117931678	-0.4026249938584169	0.01265345058995001	0.3445017936331243	-0.1011368642531818	-1.061237328173234e-08	-5.952935649661283e-08	2.48633535369448e-09	-2.982210183683e-09	-1.421553010636645e-08	4.161325849696375e-08	-1.604220911226664e-08
1.02	-0.8187279484308595	-0.1612972423202239	0.6128553023709826	2.014971306578865	-0.3354255464486429	0.0467678428465037	-0.4363287800475409	1.06665534802942	1.066655348029673	-0.003396092299394456	-0.1745252050833579	0.0004183742931028427	0.08511250402185466	-0.09386016750583849	0.02718899283855924	0.06952553623357915	-0.1485188044732966	-0.01022484737452852	-0.08207627612385598	6.633831732684147e-05	-0.2416444538927704	-0.2416444538927322	-0.01704572966468213	1.097634184796325e-06	-0.01614643369113708	-0.01421792374510572	-0.3744282491378859	0.004567806151414585	-0.005740769412244748	-0.1397629191763424	0.1282704145771924	0.00908189540073045	0.2783524293976876	10.39558078290556	-2.323247808769461	-3.841310712622575	-9.056536104006547	-545.2464683237577	-60.63722437444368	-1.983715646138132	3.093745317952532	0.7775763635393832	1.791790200908759	-7.602562687551194	-0.2320522176238602	-1.281387814255219	-0.02054740430425443	-3.908064638232542	-3.908064638232577	-0.4214428612724463	-0.02248235536402524	0.3354218348012138	-0.1208226036843315	-9.684868584755859e-09	-6.832252471496069e-08	2.624383020587947e-12	-9.742723900480759e-09	-1.727210796562451e-08	5.162849317423387e-08	-1.869653230603271e-08
1.03	-0.8195129137600575	-0.1609865265328944	0.61363982317627	2.013107504837561	-0.335538638310031	0.04588365350681549	-0.4363279630166426	1.064043617183818	1.064043617184007	-0.003587055033310309	-0.1745251814259753	0.0002734456125158606	0.08496498090197872	-0.06312379956126075	0.03496135140624346	0.08735797200520691	-0.2242123539041372	-0.0123855926774426	-0.09475551406511645	8.737226217556526e-05	-0.2806847269982601	-0.2806847269982354	-0.02114717333332249	4.563988683862471e-07	-0.01286011553468023	-0.0152849379698067	-0.3741704267152807	0.004824687633219206	-0.005733001328562676	-0.1389817480312942	0.1278053570291479	0.009232688532942519	0.2781406008366207	10.29280136983514	-2.39580371956269	-3.801116198858159	-9.191416727163798	-544.7503957834218	-60.60179572329649	-2.037125105052046	3.064944250820464	0.7781402745040685	1.775868260796529	-7.548376108780822	-0.2068842808252107	-1.260298786416748	0.01197445380496788	-3.899456126621293	-3.899456126623313	-0.4045679226237859	0.01067305388636874	0.3221106971365659	-0.09936378813512517	-8.74707655080681e-09	-7.711595982053705e-08	-2.495734191830501e-09	-1.652296511632614e-08	-2.031615225768284e-08	6.162917274424966e-08	-2.13481983447862e-08
1.04	-0.8199902430661868	-0.1605978722256638	0.614602047938375	2.010487642594364	-0.3356730973432875	0.04487285038723965	-0.4363272265143087	1.061041994111179	1.061041994111302	-0.003819046764511793	-0.174525258568643	0.0001607548917090476	0.0848068430486013	-0.03233296289228187	0.04277669681878629	0.1050663275971005	-0.2997309048521915	-0.01449828174835756	-0.107399032100588	5.023260404509127e-05	-0.3196228993003141	-0.3196228993003034	-0.02525152912052126	-1.906237637603193e-05	-0.009698841735477722	-0.01634087044539391	-0.3739126042926803	0.00508156911501938	-0.005725233244919298	-0.138200576886247	0.1273402994811028	0.009383481665150335	0.2779287722755484	10.18633352869559	-2.469396230337243	-3.758834391000265	-9.346872299077333	-544.3404244845837	-60.56557126286915	-2.099416764199297	3.104639062832772	0.7861737325110937	1.766974164961922	-7.567562990993942	-0.2224409712240341	-1.274243833097434	-0.03218212490010151	-3.887644477545401	-3.887644477545515	-0.4220252849841331	-0.02625786334962121	0.310412963350327	-0.1186062538615809	-8.21464614098974e-09	-8.457731849895636e-08	-4.156568084701404e-09	-2.153301046266918e-08	-2.314938756381421e-08	6.961287338260604e-08	-2.353055998421743e-08
1.05	-0.8201594602036261	-0.1601308633698936	0.6157406631686594	2.00711365009668	-0.3358283968562771	0.04373582816556573	-0.4363269884802578	1.057651502081147	1.057651502081678	-0.004092086557441382	-0.1745255812162768	7.894346496274003e-05	0.08463821519377474	-0.00151066177660734	0.05063058597777439	0.1226287884645395	-0.3750186937034709	-0.01654690140386898	-0.1199942830792571	6.435905681892738e-06	-0.3584591392754955	-0.3584591392755184	-0.02935406673551728	-4.055279560113233e-05	-0.006694970651532069	-0.01737928245070006	-0.3734223357964749	0.005445523277900259	-0.005711737730219057	-0.1372530580224992	0.1265638272453215	0.009587608003048703	0.2775987269295171	9.995129655472892	-2.561134107024863	-3.702443875930952	-9.40870570084976	-543.6788833932942	-60.53574888395385	-2.170961115128641	3.070992013367489	0.785817906357168	1.746687324585876	-7.502056268818765	-0.1938498544487533	-1.25051869914687	0.01088081258852975	-3.879153481394888	-3.879153481399853	-0.4040371469306689	0.01064772275235151	0.2906406169408172	-0.09563052490992051	-7.694883281926791e-09	-9.199704978902702e-08	-5.79122933126043e-09	-2.648773718809029e-08	-2.597603508913537e-08	7.753354342934809e-08	-2.569825586116986e-08
1.06	-0.8200204610544213	-0.1595851513427805	0.6170540640630083	2.00298824582316	-0.3360037380441678	0.04247318284031949	-0.4363269165622069	1.053873139706587	1.053873139707522	-0.004406085555964467	-0.1745259702973065	2.622403626666825e-05	0.0844593688486861	0.02931029443637376	0.05851733108735809	0.1400234604100128	-0.4500132600197037	-0.01850661672874127	-0.132523652813735	1.700940303675039e-05	-0.3971969682062922	-0.3971969682063481	-0.03344337023744708	-3.234905637498487e-05	-0.003880442126621302	-0.01838456849779841	-0.3729320673002717	0.005809477440771057	-0.005698242215571277	-0.1363055391587545	0.1257873550095373	0.009791734340936591	0.2772686815834843	9.800076910881176	-2.65398079406311	-3.64383999863965	-9.490044341289281	-543.1051766116337	-60.50633875177715	-2.252137460621492	3.104370082294094	0.7927449226302093	1.733416380568755	-7.508918483984639	-0.2046601050962074	-1.261067584259188	-0.02130808575647708	-3.867962268668475	-3.86796226866846	-0.4193784623708892	-0.02031903165936721	0.2725444515433392	-0.1119810622200229	-6.55433596910028e-09	-9.831722920178414e-08	-6.653163175161199e-09	-3.242678633792062e-08	-2.77803255732487e-08	8.487243871939135e-08	-2.775123934046637e-08
1.07	-0.8195731634558562	-0.1589604027953551	0.6185404791473331	1.998114487130968	-0.3361983035098088	0.04108560754401478	-0.4363267896121703	1.049708069142685	1.049708069142979	-0.004761027191863559	-0.1745262627308917	6.549099778644818e-07	0.08427054696156404	0.06015503403317286	0.06643791121194642	0.1572221625113529	-0.5246742048211681	-0.02039463521478785	-0.1449742980873195	-1.116876100244236e-05	-0.4357835458562815	-0.435783545856289	-0.03755030326599563	-2.761622161646459e-05	-0.001269100172772132	-0.01937866071407868	-0.3718940569346411	0.0062315560652853	-0.005675647054143074	-0.1353376380067106	0.1249373801468019	0.0100189856612328	0.2765736617194764	9.606199344611085	-2.75900455622672	-3.581092659008717	-9.54546879767212	-542.088314803389	-60.47093681164454	-2.343405876235694	3.075392241188424	0.7925367111683324	1.707482102594399	-7.435047015494762	-0.1790793143507562	-1.234522281476365	0.003494913406101999	-3.848959716926598	-3.848959716919351	-0.4071797483155271	0.01065355104402771	0.250066967211232	-0.09293349610093091	-5.38076820660549e-09	-1.045789218125565e-07	-7.473994497643971e-09	-3.84181930635174e-08	-2.953023536368077e-08	9.218038854365274e-08	-2.979812109648332e-08
